# xmcd
#
# Track frame offsets: 
#        150
#        16890
#        28477
#        46677
#        63592
#        80790
#        94340
#        109915
#        125352
#        137095
#        151417
#        165472
#
# Disc length: 2505 seconds
#
# Revision: 6
# Processed by: cddbd v1.5.2PL0 Copyright (c) Steve Scherf et al.
# Submitted via: ExactAudioCopy v1.0b1
#
DISCID=9f09c70c
DTITLE=The Cats - One Way Wind
DYEAR=1987
DGENRE=Pop
TTITLE0=One Way Wind
TTITLE1=Come Sunday
TTITLE2=Marian
TTITLE3=Cindy
TTITLE4=There Has Been A Time
TTITLE5=Be My Day
TTITLE6=Let's Dance
TTITLE7=Vaya Con Dios
TTITLE8=What A Crazy Life
TTITLE9=Times Were When
TTITLE10=Save The Last Dance For Me
TTITLE11=Rock 'N' Roll
EXTD=
EXTT0=
EXTT1=
EXTT2=
EXTT3=
EXTT4=
EXTT5=
EXTT6=
EXTT7=
EXTT8=
EXTT9=
EXTT10=
EXTT11=
PLAYORDER=
